M48
;GenerationSoftware,Autodesk,EAGLE,9.6.2*%
;CreationDate,2023-03-14T13:49:22Z*%
FMAT,2
ICI,OFF
METRIC,TZ,000.000
T7C0.350
T6C0.800
T5C1.000
T4C1.016
T3C1.600
T2C3.000
T1C4.000
%
G90
M71
T1
X2540Y77470
X97790Y77470
X2540Y2540
X97790Y2540
T2
X5080Y11430
X5080Y54610
X25400Y54610
X25400Y11430
X5080Y11430
X25400Y11430
X25400Y54610
X5080Y54610
T3
X74295Y6350
X67945Y6350
X17145Y73660
X23495Y73660
X89535Y6350
X83185Y6350
T4
X62230Y12700
X62230Y15240
X62230Y17780
X62230Y20320
X62230Y22860
X46990Y40640
X46990Y38100
X46990Y5080
X46990Y7620
X46990Y10160
X46990Y12700
X46990Y15240
X46990Y17780
X46990Y20320
X46990Y35560
X91440Y36830
X46990Y33020
X46990Y30480
X46990Y27940
X46990Y25400
X46990Y22860
X91440Y41910
X34290Y68580
X34290Y66040
X34290Y63500
X34290Y60960
X34290Y58420
X34290Y55880
X34290Y53340
X34290Y50800
X46990Y50800
X46990Y53340
X91440Y39370
X46990Y58420
X46990Y60960
X46990Y63500
X46990Y66040
X46990Y68580
X52070Y68580
X52070Y66040
X52070Y63500
X52070Y60960
X52070Y58420
X52070Y55880
X52070Y53340
X52070Y50800
X64770Y50800
X64770Y53340
X64770Y55880
X64770Y58420
X64770Y60960
X64770Y63500
X64770Y66040
X64770Y68580
X69850Y68580
X69850Y66040
X69850Y63500
X69850Y60960
X69850Y58420
X69850Y55880
X69850Y53340
X69850Y50800
X82550Y50800
X82550Y53340
X82550Y55880
X82550Y58420
X82550Y60960
X82550Y63500
X82550Y66040
X82550Y68580
X78740Y41910
X78740Y39370
X78740Y36830
X78740Y34290
X78740Y31750
X78740Y29210
X78740Y26670
X78740Y24130
X91440Y24130
X91440Y26670
X91440Y29210
X91440Y31750
X91440Y34290
X62230Y5080
X46990Y55880
X62230Y7620
X62230Y40640
X62230Y38100
X62230Y35560
X62230Y33020
X62230Y30480
X62230Y27940
X62230Y25400
X62230Y10160
X96520Y19050
X96520Y16510
X96520Y13970
T5
X43180Y76200
X69850Y39370
X40640Y76200
X38100Y76200
X35560Y76200
X62230Y76200
X59690Y76200
X57150Y76200
X54610Y76200
X96520Y55880
X96520Y58420
X96520Y60960
X96520Y63500
X96520Y29210
X96520Y31750
X96520Y34290
X96520Y36830
X69850Y43180
X69850Y45720
X69850Y17780
X69850Y20320
X69850Y24130
X69850Y26670
X69850Y30480
X69850Y33020
X69850Y36830
T6
X3810Y17780
X3810Y20320
X3810Y22860
X3810Y25400
X3810Y27940
X3810Y30480
X3810Y33020
X3810Y35560
X3810Y38100
X3810Y40640
X3810Y43180
X26670Y50800
X3810Y48260
X3810Y50800
X26670Y15240
X26670Y17780
X26670Y20320
X26670Y22860
X26670Y25400
X26670Y27940
X26670Y30480
X26670Y33020
X26670Y35560
X26670Y38100
X26670Y40640
X26670Y43180
X26670Y45720
X26670Y48260
X3810Y45720
X3810Y15240
T7
X65405Y31115
X65913Y25781
X66675Y18923
X50800Y27940
X48260Y41275
X50673Y40640
X55880Y7620
X48260Y43180
X50800Y13970
X59690Y68580
X59690Y57150
X62230Y68580
X62230Y58420
X57150Y68580
X57150Y60960
X91440Y55880
X40640Y68580
X43180Y7620
X43180Y68580
X44450Y58420
X38100Y68580
X38100Y60960
X55880Y5080
X39370Y40640
X40640Y58420
X41910Y38100
X30861Y38481
X40640Y39370
X55880Y66040
X30861Y40640
X64135Y35306
X38100Y34290
M30